<svg width="14" height="14" viewBox="0 0 14 14" fill="none" xmlns="http://www.w3.org/2000/svg">
<g clip-path="url(#clip0_0_25955)">
<path fill-rule="evenodd" clip-rule="evenodd" d="M6.78618 11.7638H4.73591C4.58214 11.7638 4.45735 11.6386 4.45735 11.4843V8.13013C4.45735 7.97584 4.58214 7.85061 4.73591 7.85061H8.38628C8.94397 7.49843 9.60139 7.29159 10.3073 7.29159C10.6549 7.29159 11.0031 7.34302 11.3419 7.4442C11.4266 7.47047 11.5174 7.45314 11.5876 7.4006C11.626 7.37209 11.6556 7.33407 11.6751 7.29159H13.098C13.2607 7.28823 13.3827 7.1686 13.3821 7.01207C13.3821 6.91089 13.3286 6.82256 13.2484 6.77337L11.6996 5.21927V0.862766C11.6996 0.708474 11.5748 0.583252 11.421 0.583252H9.19245C9.03868 0.583252 8.91388 0.708474 8.91388 0.862766V2.42413L7.3578 0.862766C6.99956 0.502752 6.37278 0.502193 6.01343 0.862766L0.08159 6.81418C0.00191943 6.89412 -0.0220375 7.01431 0.0214192 7.11885C0.0643188 7.22338 0.166275 7.29159 0.278817 7.29159H1.67166V13.7204C1.67166 13.8747 1.79646 13.9999 1.95023 13.9999H7.5801C7.6932 13.9999 7.79515 13.9312 7.83805 13.8261C7.88095 13.721 7.85588 13.6002 7.7751 13.5208C7.27757 13.0317 6.94162 12.4246 6.78618 11.7638ZM10.3524 7.85057C8.66262 7.85057 7.28816 9.22969 7.28816 10.9252C7.28816 12.6208 8.66262 13.9999 10.3524 13.9999C12.0422 13.9999 13.4167 12.6208 13.4167 10.9252C13.4167 9.22969 12.0422 7.85057 10.3524 7.85057ZM10.631 11.2047H11.4667C11.621 11.2047 11.7453 11.0795 11.7453 10.9252C11.7453 10.7709 11.6205 10.6457 11.4667 10.6457H10.631V9.80717C10.631 9.65287 10.5062 9.52765 10.3524 9.52765C10.1986 9.52765 10.0738 9.65287 10.0738 9.80717V10.6457H9.23814C9.08437 10.6457 8.95957 10.7709 8.95957 10.9252C8.95957 11.0795 9.08437 11.2047 9.23814 11.2047H10.0738V12.0433C10.0738 12.1976 10.1986 12.3228 10.3524 12.3228C10.5062 12.3228 10.631 12.1976 10.631 12.0433V11.2047Z" fill="#2E3758"/>
</g>
<defs>
<clipPath id="clip0_0_25955">
<rect width="14" height="14" fill="white"/>
</clipPath>
</defs>
</svg>
